<?xml version="1.0" encoding="UTF-8" standalone="no"?>
<!-- Uploaded to: SVG Repo, www.svgrepo.com, Generator: SVG Repo Mixer Tools -->

<svg
   fill="#000000"
   height="800px"
   width="800px"
   version="1.1"
   id="Layer_1"
   viewBox="0 0 492 492"
   xml:space="preserve"
   sodipodi:docname="close-btn.svg"
   inkscape:version="1.2.2 (b0a8486541, 2022-12-01)"
   xmlns:inkscape="http://www.inkscape.org/namespaces/inkscape"
   xmlns:sodipodi="http://sodipodi.sourceforge.net/DTD/sodipodi-0.dtd"
   xmlns="http://www.w3.org/2000/svg"
   xmlns:svg="http://www.w3.org/2000/svg"><defs
   id="defs11" /><sodipodi:namedview
   id="namedview9"
   pagecolor="#ffffff"
   bordercolor="#000000"
   borderopacity="0.25"
   inkscape:showpageshadow="2"
   inkscape:pageopacity="0.0"
   inkscape:pagecheckerboard="0"
   inkscape:deskcolor="#d1d1d1"
   showgrid="false"
   inkscape:zoom="0.61"
   inkscape:cx="400"
   inkscape:cy="400"
   inkscape:window-width="1280"
   inkscape:window-height="654"
   inkscape:window-x="0"
   inkscape:window-y="30"
   inkscape:window-maximized="1"
   inkscape:current-layer="Layer_1" />
<g
   id="g6">
	<g
   id="g4">
		<path
   d="M300.188,246L484.14,62.04c5.06-5.064,7.852-11.82,7.86-19.024c0-7.208-2.792-13.972-7.86-19.028L468.02,7.872    c-5.068-5.076-11.824-7.856-19.036-7.856c-7.2,0-13.956,2.78-19.024,7.856L246.008,191.82L62.048,7.872    c-5.06-5.076-11.82-7.856-19.028-7.856c-7.2,0-13.96,2.78-19.02,7.856L7.872,23.988c-10.496,10.496-10.496,27.568,0,38.052    L191.828,246L7.872,429.952c-5.064,5.072-7.852,11.828-7.852,19.032c0,7.204,2.788,13.96,7.852,19.028l16.124,16.116    c5.06,5.072,11.824,7.856,19.02,7.856c7.208,0,13.968-2.784,19.028-7.856l183.96-183.952l183.952,183.952    c5.068,5.072,11.824,7.856,19.024,7.856h0.008c7.204,0,13.96-2.784,19.028-7.856l16.12-16.116    c5.06-5.064,7.852-11.824,7.852-19.028c0-7.204-2.792-13.96-7.852-19.028L300.188,246z"
   id="path2"
   style="fill:#ffffff;fill-opacity:1" />
	</g>
</g>
</svg>
